<?xml version="1.0" encoding="UTF-8"?>
<svg enable-background="new 0 0 121.491 137.411" viewBox="0 0 121.491 137.411" xmlns="http://www.w3.org/2000/svg">
 <defs>
  <radialGradient id="a" cx="60.498" cy="68.639" r="64.037" gradientUnits="userSpaceOnUse">
   <stop stop-color="#7dd909" offset=".0056"/>
   <stop stop-color="#7cd609" offset=".4147"/>
   <stop stop-color="#77ce08" offset=".6676"/>
   <stop stop-color="#6ebf08" offset=".8776"/>
   <stop stop-color="#67b307" offset="1"/>
  </radialGradient>
 </defs>
 <path d="m116.964,32.291-43.34-25.581c-5.742-3.391-12.147-8.425-19.039-4.357l-18.432,10.881c-8.797,5.192-17.596,10.385-26.394,15.577-5.673,3.351-6.938,3.861-7.647,10.844-1.476,14.535-1.201,29.33-1.138,43.92 .022,5.103-1.701,15.971 1.047,19.845 1.108,1.784 3.873,2.918 5.613,3.944l46.256,27.305c6.468,3.818 11.764.758 17.326-2.525l25.854-15.259 19.263-11.37c4.8-2.832 3.795-7.616 3.916-12.357 .272-10.711.394-21.434.165-32.148-.184-8.615.358-18.775-2.592-27.024-.212-.591-.464-1.2-.858-1.695" fill="url(#a)"/>
 <path d="m54.313,1.579-49.672,29.318c-4.779,2.821-3.734,13.152-3.969,17.815-.429,8.521-.517,17.059-.536,25.589-.009,4.225-.718,29.56 1.201,29.543 2.87,4.618 11.941,7.787 16.345,10.386l27.347,16.143c6.305,3.722 13.895,9.961 21.488,5.48 5.619-2.676 10.938-6.457 16.291-9.617l26.863-15.854c2.572-1.52 10.988-5.177 11.133-8.972 .706-18.637 1.238-37.534-.347-56.132-.285-3.324-.071-11.903-3.495-13.924l-18.077-10.671c-8.276-4.886-16.555-9.771-24.832-14.657-5.943-3.505-12.61-8.655-19.74-4.447m-52.556,76.151c0-13.489-.41-27.402 1.477-40.804 .695-4.938 3.557-5.428 7.746-7.901l44.117-26.039c6.914-4.08 14.324,2.177 20.047,5.556l27.584,16.281c4.06,2.396 13.261,5.446 14.661,10.438 2.009,7.175 1.905,15.187 2.124,22.57 .316,10.669.246,21.352.016,32.021-.122,5.686.731,10.157-3.064,14.459-.782.887-2.039,1.393-3.046,1.988-6.182,3.647-12.362,7.296-18.544,10.943l-21.545,12.718c-5.065,2.99-10.324,7.327-16.606,5.222-4.142-1.39-8.094-4.554-11.809-6.747l-23.18-13.685-16.275-9.604c-1.294-.764-2.212-1.939-3.479-2.688-.137-8.241-.224-16.484-.224-24.728" fill="#73b507"/>
 <path d="m74.307,64.458c13.191-5.561 25.174-13.476 37.868-20.005 .394-.203 6.204-2.812 4.259-.859-2.976,2.988-7.072,5.159-10.562,7.471-10.767,7.131-22.445,14.127-31.381,23.573-7.309,7.725-7.053,21.045-7.963,30.992-.391,4.244-.471,8.846-1.772,12.939-1.08,3.392-2.713,1.054-3.23-1.195-2.516-10.935-1.633-22.377-5.091-33.184-4.235-13.232-20.305-21.908-31.325-29.011-4.881-3.145-9.904-6.078-14.744-9.285-.747-.494-5.609-4.243-1.934-3.022 9.153,3.041 17.766,8.798 26.396,13.038 6.497,3.192 13.072,6.249 19.817,8.882 7.308,2.853 12.364,2.744 19.662-.334" fill="#bbff3b"/>
 <path d="m116.235,34.036c0-1.316-7.219-4.879-8.176-5.481-6.153-3.862-12.378-7.612-18.645-11.287-6.684-3.918-13.416-7.768-20.288-11.345-3.183-1.658-7.13-4.979-10.764-3.494-10.33,4.216-20.047,10.565-29.622,16.224-5.195,3.069-10.369,6.18-15.495,9.362-.836.519-7.309,3.678-7.309,4.815 0-1.494 19.105-9.976 20.875-10.929 10.172-5.477 20.28-11.246 30.769-16.105 3.938-1.825 5.818.212 9.654,2.22 6.978,3.653 13.906,7.404 20.833,11.154 6.506,3.524 13,7.068 19.528,10.554 .621.329 8.64,3.913 8.64,4.312" fill="#b2ff21"/>
 <path d="m4.729,103.527c0,1.317 7.219,4.88 8.177,5.481 6.153,3.863 12.378,7.613 18.645,11.287 6.683,3.919 13.416,7.769 20.288,11.347 3.183,1.659 7.129,4.978 10.764,3.493 10.329-4.215 20.047-10.564 29.622-16.223 5.195-3.07 10.369-6.18 15.494-9.362 .837-.52 7.309-3.678 7.309-4.815 0,1.494-19.104,9.976-20.873,10.93-10.173,5.477-20.281,11.245-30.769,16.104-3.939,1.825-5.818-.213-9.655-2.221-6.977-3.652-13.905-7.402-20.832-11.152-6.507-3.524-13.001-7.069-19.528-10.555-.622-.33-8.642-3.914-8.642-4.314" fill="#b2ff21"/>
</svg>
